<svg xmlns="http://www.w3.org/2000/svg" width="24.38" height="24.38" viewBox="0 0 24.38 24.38">
  <g id="_call" data-name=" call" transform="translate(-108 -188)">
    <g id="call" transform="translate(108 188)">
      <g id="call-2" data-name="call" transform="translate(2 2)">
        <path id="Vector" d="M20.35,16.64a2.593,2.593,0,0,1-.255,1.111A4.2,4.2,0,0,1,19.4,18.79a4.594,4.594,0,0,1-1.671,1.2,5.118,5.118,0,0,1-1.987.387,8.493,8.493,0,0,1-3.322-.744,17.9,17.9,0,0,1-3.505-2.018,29.3,29.3,0,0,1-3.342-2.853,28.955,28.955,0,0,1-2.843-3.332,18.167,18.167,0,0,1-2-3.475A8.583,8.583,0,0,1,0,4.626,5.271,5.271,0,0,1,.367,2.66,4.687,4.687,0,0,1,1.539.958,2.986,2.986,0,0,1,3.658,0a1.915,1.915,0,0,1,.825.183,1.661,1.661,0,0,1,.683.571L7.531,4.086a3.487,3.487,0,0,1,.408.713,1.611,1.611,0,0,1,.143.622,1.383,1.383,0,0,1-.214.723,3.465,3.465,0,0,1-.571.723l-.774.805a.545.545,0,0,0-.163.408.925.925,0,0,0,.031.234c.031.082.061.143.082.2a8.458,8.458,0,0,0,.948,1.3c.459.53.948,1.07,1.478,1.61.55.54,1.08,1.039,1.62,1.5a7.821,7.821,0,0,0,1.315.937c.051.02.112.051.183.082a.7.7,0,0,0,.255.041.56.56,0,0,0,.418-.173l.774-.764a3.126,3.126,0,0,1,.734-.571,1.357,1.357,0,0,1,.724-.214,1.63,1.63,0,0,1,.622.132,3.942,3.942,0,0,1,.713.4l3.373,2.395a1.546,1.546,0,0,1,.56.652,2.091,2.091,0,0,1,.163.795Z" transform="translate(0 0)" fill="none" stroke="#f67662" stroke-width="2"/>
      </g>
      <path id="Vector-2" data-name="Vector" d="M0,0H24.38V24.38H0Z" fill="none" opacity="0"/>
    </g>
  </g>
</svg>
