<svg xmlns="http://www.w3.org/2000/svg" width="24.38" height="24.38" viewBox="0 0 24.38 24.38">
  <g id="_direct" data-name=" direct" transform="translate(-428 -186)">
    <g id="direct" transform="translate(428 186)">
      <path id="Vector" d="M6.841,19.547h5.864c4.887,0,6.841-1.955,6.841-6.841V6.841C19.547,1.955,17.592,0,12.705,0H6.841C1.955,0,0,1.955,0,6.841v5.864C0,17.592,1.955,19.547,6.841,19.547Z" transform="translate(2.417 2.417)" fill="none" stroke="#f67662" stroke-linecap="round" stroke-linejoin="round" stroke-width="2"/>
      <path id="Vector-2" data-name="Vector" d="M0,.012H3.674A1.96,1.96,0,0,1,5.423,1.353l.87,2.163A1.876,1.876,0,0,0,8.051,4.845H11.5A1.96,1.96,0,0,0,13.25,3.5l.87-2.163A1.96,1.96,0,0,1,15.868,0h3.654" transform="translate(2.417 12.694)" fill="none" stroke="#f67662" stroke-linecap="round" stroke-linejoin="round" stroke-width="2" opacity="0.4"/>
      <path id="Vector-3" data-name="Vector" d="M0,0H4.024" transform="translate(10.183 7.111)" fill="none" stroke="#f67662" stroke-linecap="round" stroke-linejoin="round" stroke-width="2" opacity="0.4"/>
      <path id="Vector-4" data-name="Vector" d="M0,0H6.042" transform="translate(9.169 10.158)" fill="none" stroke="#f67662" stroke-linecap="round" stroke-linejoin="round" stroke-width="2" opacity="0.4"/>
      <path id="Vector-5" data-name="Vector" d="M0,0H24.38V24.38H0Z" fill="none" opacity="0"/>
    </g>
  </g>
</svg>
