<svg xmlns="http://www.w3.org/2000/svg" width="25.5" height="25.5" viewBox="0 0 25.5 25.5">
  <g id="_shopping-cart" data-name=" shopping-cart" transform="translate(-621.25 -187.25)">
    <g id="shopping-cart" transform="translate(622 188)">
      <path id="Vector" d="M0,0H1.823A2.265,2.265,0,0,1,3.244.473a1.265,1.265,0,0,1,.505,1.11L2.88,9.468a1.915,1.915,0,0,0,.765,1.684,3.431,3.431,0,0,0,2.157.715H16.958A2.8,2.8,0,0,0,19.9,9.8l.566-5.938A1.9,1.9,0,0,0,19.7,2.177a3.416,3.416,0,0,0-2.173-.7H4" transform="translate(1.583 1.583)" fill="none" stroke="#f67662" stroke-linecap="round" stroke-linejoin="round" stroke-width="1.5"/>
      <path id="Vector-2" data-name="Vector" d="M1.979.99A.99.99,0,1,1,.99,0,.99.99,0,0,1,1.979.99Z" transform="translate(15.363 20.437)" fill="none" stroke="#f67662" stroke-linecap="round" stroke-linejoin="round" stroke-width="1.5" opacity="0.4"/>
      <path id="Vector-3" data-name="Vector" d="M1.979.99A.99.99,0,1,1,.99,0,.99.99,0,0,1,1.979.99Z" transform="translate(7.17 20.437)" fill="none" stroke="#f67662" stroke-linecap="round" stroke-linejoin="round" stroke-width="1.5" opacity="0.4"/>
      <path id="Vector-4" data-name="Vector" d="M0,0H9.5" transform="translate(12.125 8)" fill="none" stroke="#f67662" stroke-linecap="round" stroke-linejoin="round" stroke-width="1.5" opacity="0.4"/>
      <path id="Vector-5" data-name="Vector" d="M0,0H24V24H0Z" fill="none" stroke="#f67662" stroke-width="1.5" opacity="0"/>
    </g>
  </g>
</svg>
