<svg xmlns="http://www.w3.org/2000/svg" width="19.526" height="18.518" viewBox="0 0 19.526 18.518">
  <g id="Star" transform="translate(0.765 0.742)">
    <path id="Stroke_1" data-name="Stroke 1" d="M10.1.677l1.827,3.651a1.228,1.228,0,0,0,.926.664l4.088.588a1.21,1.21,0,0,1,.681,2.071l-2.956,2.84a1.2,1.2,0,0,0-.354,1.075l.7,4.01a1.228,1.228,0,0,1-1.787,1.28L9.573,14.963a1.248,1.248,0,0,0-1.146,0L4.773,16.857a1.227,1.227,0,0,1-1.786-1.28l.7-4.01a1.2,1.2,0,0,0-.354-1.075L.374,7.652a1.21,1.21,0,0,1,.681-2.071l4.088-.588a1.23,1.23,0,0,0,.927-.664L7.9.677a1.239,1.239,0,0,1,2.2,0Z" fill="none" stroke="#f67662" stroke-linecap="round" stroke-linejoin="round" stroke-miterlimit="10" stroke-width="1.5"/>
  </g>
</svg>
